<svg width="94" height="94" viewBox="0 0 94 94" fill="none" xmlns="http://www.w3.org/2000/svg">
<circle cx="47" cy="47" r="47" fill="#B8E0D3"/>
<path d="M61.6955 70.9969C63.1669 72.4432 65.1328 73.2571 67.1989 73.2759V69.5194H63.217H53.6752H42.1865H32.3693C30.8604 69.5194 29.3516 69.5256 27.8426 69.5194C27.5734 69.5194 27.3042 69.5006 27.035 69.4693C27.204 69.4943 27.3668 69.5131 27.5358 69.5382C27.0037 69.463 26.4903 69.3253 25.9957 69.1187C26.1459 69.1813 26.2962 69.2439 26.4464 69.3065C26.1209 69.1625 25.8016 68.9934 25.5073 68.7994C25.4697 68.7743 25.2381 68.6491 25.2381 68.6115C25.2381 68.6553 25.6576 68.9496 25.3633 68.7054C25.2256 68.5927 25.0941 68.4738 24.9689 68.3486C24.8437 68.2233 24.7247 68.0919 24.612 67.9541C24.5118 67.8352 24.3866 67.591 24.7059 68.0793C24.6558 67.998 24.5932 67.9228 24.5431 67.8477C24.3365 67.5409 24.1612 67.2153 24.0109 66.871C24.0735 67.0213 24.1362 67.1715 24.1988 67.3218C23.9922 66.8272 23.8544 66.3138 23.7793 65.7816C23.8043 65.9506 23.8231 66.1134 23.8481 66.2825C23.7793 65.7065 23.7981 65.1242 23.7981 64.5482V61.6244V51.7382V39.5855V29.0984C23.7981 27.4017 23.7793 25.7112 23.7981 24.0145C23.7981 23.9393 23.8043 23.8642 23.8106 23.7891C23.7855 23.9581 23.7668 24.1209 23.7417 24.29C23.7605 24.2086 23.7793 24.1334 23.8043 24.0583L23.6165 24.5091C23.6353 24.459 23.6666 24.4152 23.6854 24.3651C23.7981 24.1147 23.4099 24.6656 23.5601 24.5279C23.6666 24.4277 23.222 24.7032 23.3598 24.6781C23.4099 24.6656 23.4913 24.6093 23.5351 24.5905C23.3848 24.6531 23.2346 24.7157 23.0843 24.7783C23.1594 24.7533 23.2346 24.7282 23.3159 24.7157C23.1469 24.7407 22.9841 24.7595 22.8151 24.7846C23.1845 24.7407 23.5789 24.7721 23.9483 24.7721H26.628H35.5373H46.3687H55.6913C57.1815 24.7721 58.6778 24.7533 60.168 24.7721C60.2431 24.7721 60.3183 24.7783 60.3934 24.7846C60.2243 24.7595 60.0616 24.7407 59.8925 24.7157C59.9802 24.7345 60.0553 24.7533 60.1367 24.7846L59.6859 24.5967C59.736 24.6155 59.7861 24.6406 59.8299 24.6719C59.5669 24.4527 59.5043 24.4027 59.6421 24.5341C59.7673 24.6719 59.7235 24.6093 59.5043 24.3463C59.5356 24.3964 59.5607 24.4402 59.5795 24.4903L59.3916 24.0395C59.4229 24.1209 59.4417 24.1961 59.4605 24.2837C59.4355 24.1147 59.4167 23.9519 59.3916 23.7828C59.448 24.2274 59.4042 24.6969 59.4042 25.1414V28.4097V33.2556V39.0971V45.4457V51.738V57.3979V61.9434V64.7922V65.4245C59.4042 66.5765 59.6546 67.6534 60.1054 68.7115C60.4873 69.5505 61.0445 70.3331 61.6957 70.9968C62.3844 71.698 63.668 71.7418 64.3504 70.9968C65.0454 70.2392 65.0892 69.0872 64.3504 68.3421C64.2127 68.2043 64.0875 68.0603 63.9623 67.9101C63.7619 67.6722 64.1751 68.2106 64.0499 68.0228C63.9936 67.9414 63.9372 67.8662 63.8871 67.7849C63.6805 67.4718 63.5115 67.14 63.3612 66.7956L63.549 67.2464C63.3612 66.7831 63.236 66.3073 63.1608 65.8127C63.1859 65.9818 63.2047 66.1445 63.2297 66.3136C63.1546 65.7251 63.1734 65.1303 63.1734 64.5417V61.6178V51.7317V39.698V29.1796C63.1734 27.4642 63.1859 25.7486 63.1734 24.0331C63.1608 22.6619 62.2718 21.391 60.9006 21.0842C60.5625 21.009 60.2682 21.0028 59.9426 21.0028H57.6323H48.1344H36.1317H26.2018H23.5159C23.3468 21.0028 23.1715 20.9965 23.0025 21.0028C21.3433 21.0466 20.0786 22.2988 20.0223 23.9579C19.9722 25.4293 20.0223 26.913 20.0223 28.3844V38.5522V50.5984V60.8602C20.0223 62.4003 20.016 63.9405 20.0223 65.4807C20.041 68.4171 21.7503 71.2972 24.4675 72.5181C25.5444 73.0064 26.6589 73.2756 27.8547 73.2819H28.3807H35.2803H46.6314H58.333H66.1092H67.2048C68.1878 73.2819 69.1269 72.4179 69.0831 71.4036C69.0393 70.3768 68.2566 69.5316 67.2048 69.5254C66.9293 69.5254 66.6601 69.5066 66.3846 69.469C66.5537 69.4941 66.7165 69.5129 66.8855 69.5379C66.3909 69.4628 65.9151 69.3376 65.4518 69.1497L65.9026 69.3376C65.5582 69.1936 65.2264 69.0182 64.9134 68.8116C64.8445 68.7678 64.7819 68.7177 64.713 68.6739C64.4125 68.4735 65.0574 68.9682 64.7881 68.7302C64.6441 68.605 64.5001 68.4798 64.3624 68.3421C63.6612 67.6534 62.3964 67.5907 61.7077 68.3421C61.0127 69.0871 60.9501 70.2579 61.6952 70.9968L61.6955 70.9969Z" fill="white"/>
<path d="M71.2313 47.7196V53.9492V63.5912C71.2313 64.4802 71.2939 65.4068 71.1749 66.2959C71.2 66.1268 71.2188 65.9641 71.2438 65.795C71.1687 66.3147 71.0309 66.8156 70.8306 67.2976C70.8932 67.1474 70.9558 66.9971 71.0184 66.8469C70.8744 67.1849 70.6991 67.5105 70.4925 67.8173C70.4487 67.8862 70.3986 67.955 70.3485 68.0239C70.1607 68.2931 70.6678 67.6357 70.4111 67.9425C70.2921 68.0803 70.1732 68.218 70.0417 68.3432C69.9227 68.4622 69.7975 68.5749 69.6723 68.6813C69.6285 68.7189 69.5846 68.7502 69.5408 68.7878C69.7975 68.5874 69.8726 68.5373 69.7537 68.625C69.6723 68.6813 69.5909 68.7377 69.5095 68.794C69.2027 69.0006 68.8772 69.1697 68.5391 69.3137L68.9899 69.1259C68.5203 69.3199 68.0319 69.4514 67.5248 69.5266C67.6938 69.5015 67.8566 69.4827 68.0257 69.4577C67.4809 69.5266 66.9362 69.5266 66.3853 69.4577C66.5543 69.4827 66.7171 69.5015 66.8862 69.5266C66.3916 69.4514 65.9157 69.3262 65.4525 69.1384L65.9032 69.3262C65.5589 69.1822 65.2271 69.0069 64.914 68.8003C64.8326 68.7439 64.7575 68.6876 64.6761 68.6375C64.4883 68.5123 65.0267 68.9255 64.7888 68.7251C64.6385 68.5999 64.4945 68.4747 64.363 68.337C64.2378 68.2117 64.1189 68.0803 64.0062 67.9425C63.8121 67.7046 64.0124 67.9864 64.0876 68.0552C64.0187 67.9926 63.9686 67.8924 63.9185 67.8173C63.6994 67.4917 63.5178 67.1474 63.3675 66.7905C63.4302 66.9408 63.4928 67.091 63.5554 67.2413C63.3675 66.778 63.2423 66.3022 63.1672 65.8076C63.1922 65.9766 63.211 66.1394 63.2361 66.3085C63.1359 65.5384 63.1797 64.7369 63.1797 63.9606V59.7657V49.9736V47.7134L61.3015 49.5916H65.3022H71.6508H73.1159C74.0988 49.5916 75.038 48.7276 74.9941 47.7134C74.9503 46.6928 74.1677 45.8351 73.1159 45.8351H69.1151H62.7665H61.3015C60.2872 45.8351 59.4232 46.6929 59.4232 47.7134V50.3492V56.2532V62.295C59.4232 63.3469 59.4169 64.3924 59.4232 65.4443C59.4295 67.0471 59.9053 68.7001 60.8695 69.9898C61.5332 70.8726 62.3032 71.6301 63.2612 72.1999C64.2505 72.7822 65.3086 73.0827 66.4356 73.2205C70.2547 73.69 74.0677 70.8977 74.8128 67.1348C75.0507 65.9264 74.9943 64.6868 74.9943 63.4596V57.8122V51.6138V47.8948V47.7133C74.9943 46.7303 74.1303 45.7912 73.1161 45.835C72.0955 45.8851 71.2315 46.6677 71.2315 47.7196L71.2313 47.7196Z" fill="white"/>
<path d="M54.0012 39.8807H51.5406H45.6303H38.4427H32.2569C31.2551 39.8807 30.2471 39.8494 29.2453 39.8807H29.2015L31.0798 41.759V37.8709V31.6663V30.2388L29.2015 32.117H31.662H37.5724H44.76H50.9458C51.9475 32.117 52.9556 32.1484 53.9573 32.117H54.0012L52.1229 30.2388V34.1269V40.3314V41.759C52.1229 42.7419 52.9869 43.6811 54.0012 43.6372C55.0217 43.5934 55.8794 42.8108 55.8794 41.759V37.8709V31.6663V30.2388C55.8794 29.2245 55.0217 28.3605 54.0012 28.3605H51.5406H45.6303H38.4427H32.2569C31.2551 28.3605 30.2471 28.3417 29.2453 28.3605H29.2015C28.1872 28.3605 27.3232 29.2183 27.3232 30.2388V34.1269V40.3314V41.759C27.3232 42.7732 28.181 43.6372 29.2015 43.6372H31.662H37.5724H44.76H50.9458C51.9475 43.6372 52.9556 43.656 53.9573 43.6372H54.0012C54.9841 43.6372 55.9233 42.7732 55.8794 41.759C55.8356 40.7384 55.053 39.8807 54.0012 39.8807V39.8807Z" fill="white"/>
<path d="M54.0012 54.7124H51.5406H45.6303H38.4427H32.2569C31.2552 54.7124 30.2471 54.6936 29.2453 54.7124H29.2015C28.2185 54.7124 27.2794 55.5764 27.3233 56.5907C27.3671 57.6112 28.1497 58.4689 29.2015 58.4689H31.6621H37.5724H44.76H50.9458C51.9475 58.4689 52.9556 58.4877 53.9573 58.4689H54.0012C54.9841 58.4689 55.9233 57.6049 55.8794 56.5907C55.8356 55.5701 55.053 54.7124 54.0012 54.7124V54.7124Z" fill="white"/>
<path d="M54.0012 47.2616H51.5406H45.6303H38.4427H32.2569C31.2552 47.2616 30.2471 47.2429 29.2453 47.2616H29.2015C28.2185 47.2616 27.2794 48.1257 27.3233 49.1399C27.3671 50.1604 28.1497 51.0182 29.2015 51.0182H31.6621H37.5724H44.76H50.9458C51.9475 51.0182 52.9556 51.037 53.9573 51.0182H54.0012C54.9841 51.0182 55.9233 50.1542 55.8794 49.1399C55.8356 48.1194 55.053 47.2616 54.0012 47.2616V47.2616Z" fill="white"/>
<path d="M42.3495 62.1632H37.8917H30.8231H29.1952C28.2122 62.1632 27.2731 63.0272 27.3169 64.0414C27.3607 65.062 28.1434 65.9197 29.1952 65.9197H33.653H40.7217H42.3495C43.3325 65.9197 44.2716 65.0557 44.2278 64.0414C44.184 63.0209 43.4013 62.1632 42.3495 62.1632V62.1632Z" fill="white"/>
</svg>
