<svg width="94" height="94" viewBox="0 0 94 94" fill="none" xmlns="http://www.w3.org/2000/svg">
<circle cx="47" cy="47" r="47" fill="#B8E0D3"/>
<path d="M61.2493 69.8794L58.0458 66.6755L60.385 64.3362C60.9542 63.7867 61.2789 63.0311 61.2855 62.2401C61.2925 61.4486 60.9814 60.6881 60.4217 60.1284C59.8624 59.5691 59.1014 59.2575 58.31 59.2645C57.519 59.2715 56.7637 59.5958 56.2139 60.165L53.8733 62.5055L50.6718 59.3007L58.2995 51.6721L68.8765 62.2512L61.2493 69.8794ZM27.1373 61.8162L32.1846 66.8635L24.6128 69.3889L27.1369 61.817L27.1373 61.8162ZM31.4957 40.125L33.8362 37.7857C34.405 37.2358 34.7293 36.4806 34.7359 35.6893C34.7429 34.8982 34.4314 34.1373 33.8716 33.578C33.3119 33.0187 32.551 32.7075 31.7599 32.7145C30.9685 32.7215 30.2133 33.0462 29.6638 33.6154L27.3245 35.9547L24.1218 32.7503L31.7496 25.1226L42.3287 35.7006L34.6996 43.3292L31.4957 40.125ZM68.5198 25.479C69.5297 26.4915 70.0973 27.8632 70.0973 29.2933C70.0973 30.7235 69.5298 32.0957 68.5198 33.1076L67.1489 34.4797L59.5203 26.8499L60.892 25.4733C61.9045 24.4633 63.2762 23.8961 64.7059 23.8961C66.1356 23.8961 67.5074 24.4633 68.5198 25.4733V25.479ZM30.0207 56.3502L55.3499 31.023L62.9786 38.6508L37.6493 63.979L30.0207 56.3502ZM75.1342 60.1653L62.4711 47.5002L72.6918 37.2795C75.5447 34.4266 76.6592 30.2687 75.6151 26.3707C74.5709 22.4737 71.527 19.4294 67.63 18.3852C63.733 17.3407 59.5746 18.4548 56.7212 21.3077L46.4993 31.5296L33.8352 18.8644C33.282 18.3113 32.5318 18.0006 31.7498 18.0006C30.9674 18.0006 30.2172 18.3113 29.664 18.8644L17.8639 30.6646V30.6642C17.3107 31.2173 17 31.968 17 32.7504C17 33.5328 17.3107 34.2835 17.8639 34.8366L30.5301 47.4997L23.7649 54.2648V54.2653C23.4414 54.5887 23.1986 54.9834 23.0545 55.4177L17.1545 73.1179H17.1549C16.924 73.8139 16.9606 74.5707 17.2573 75.2411C17.5541 75.9115 18.0899 76.4474 18.7604 76.7442C19.4308 77.0409 20.1877 77.0775 20.8836 76.8466L38.5838 70.9466V70.947C39.018 70.8025 39.4127 70.5593 39.7363 70.2358L46.4998 63.4714L59.1639 76.1356C59.717 76.6887 60.4673 76.999 61.2492 76.999C62.0316 76.999 62.7819 76.6887 63.335 76.1356L75.1352 64.3354C75.6879 63.7823 75.9986 63.032 75.9986 62.25C75.9986 61.4677 75.6879 60.7174 75.1352 60.1642L75.1342 60.1653Z" fill="white"/>
</svg>
