<svg width="94" height="94" viewBox="0 0 94 94" fill="none" xmlns="http://www.w3.org/2000/svg">
<circle cx="47" cy="47" r="47" fill="#B8E0D3"/>
<path d="M59.8984 13.0002C49.9242 13.0002 41.7965 21.1881 41.7965 31.2372C41.7965 32.0472 41.8686 32.8412 41.9711 33.6237L21.7785 33.6233C21.3713 33.6224 20.9731 33.7444 20.6353 33.9737C20.2979 34.2035 20.0367 34.5297 19.8857 34.9107L13.1403 51.9079C12.895 52.5374 12.9748 53.2483 13.3526 53.8075C13.7303 54.3662 14.3579 54.7011 15.029 54.702H16.5726V74.9611C16.5745 75.5038 16.7908 76.0237 17.173 76.4061C17.5558 76.7885 18.0732 77.0018 18.612 77H62.0295C62.5682 77.0018 63.0856 76.7885 63.4679 76.4061C63.8507 76.0237 64.0665 75.5038 64.0688 74.9611V54.702H65.6124C66.2836 54.7011 66.9112 54.3662 67.2889 53.8075C67.6666 53.2483 67.746 52.5375 67.5011 51.9079L66.0962 48.3499C73.0266 45.7901 78 39.0902 78 31.2369C78 21.1883 69.8728 13 59.8982 13L59.8984 13.0002ZM59.8984 17.0978C67.6768 17.0978 73.9371 23.4007 73.9371 31.2366C73.9371 37.9766 69.3016 43.5707 63.0568 45.0081V45.0076C63.0142 45.0145 62.972 45.0227 62.9298 45.0319C61.9345 45.2603 60.9192 45.3736 59.8984 45.3795C59.1846 45.3795 58.4844 45.3083 57.7957 45.2036C57.675 45.1858 57.554 45.1689 57.4347 45.1479C56.7518 45.0255 56.0828 44.8592 55.4348 44.6403C55.3908 44.6257 55.3478 44.6079 55.3038 44.5924C51.067 43.1117 47.6868 39.6395 46.4039 35.1062H46.4034C46.4021 35.1021 46.4007 35.0984 46.3994 35.0943C46.057 33.8682 45.8597 32.5766 45.8597 31.2367C45.8597 23.4002 52.12 17.0979 59.8984 17.0979L59.8984 17.0978ZM59.8984 20.8874C55.1418 20.8874 51.2443 24.8141 51.2443 29.6061C51.2443 32.6844 53.2727 35.1167 55.0258 37.2535C56.7785 39.3903 58.5175 41.0272 58.5175 41.0272V41.0267C58.8939 41.3821 59.3904 41.58 59.906 41.58C60.4221 41.58 60.9187 41.3821 61.2951 41.0267C61.2951 41.0267 63.0341 39.3898 64.7868 37.253C66.5395 35.1162 68.5525 32.684 68.5525 29.6056C68.5525 24.8136 64.6549 20.8869 59.8984 20.8869V20.8874ZM59.8984 24.9849C62.4592 24.9849 64.5011 27.0262 64.5011 29.6061C64.5011 30.2137 63.2115 32.7502 61.6519 34.6512C60.7803 35.7134 60.5014 35.9263 59.8984 36.5421C59.2957 35.9263 59.0286 35.7093 58.1606 34.6512C56.6011 32.7502 55.3115 30.2138 55.3115 29.6061C55.3115 27.0262 57.3376 24.9849 59.8984 24.9849ZM59.9025 26.6159C59.2467 26.6154 58.6178 26.8781 58.1543 27.345C57.6904 27.8119 57.4301 28.4456 57.4301 29.1063C57.4301 29.7669 57.6904 30.4005 58.1543 30.8675C58.6177 31.3344 59.2467 31.5971 59.9025 31.5967C60.5577 31.5967 61.1866 31.3344 61.6507 30.8675C62.1141 30.4006 62.3744 29.7669 62.3744 29.1063C62.3744 28.4457 62.1141 27.812 61.6507 27.345C61.1867 26.8781 60.5578 26.6154 59.9025 26.6159ZM23.1555 37.7212H43.0022C45.2786 43.7156 50.5988 48.1906 57.0525 49.2258C57.1527 49.2427 57.2534 49.2582 57.354 49.2737C57.6828 49.3208 58.012 49.3688 58.3458 49.3975C58.8573 49.4455 59.3729 49.4734 59.8971 49.4734H59.8975H59.9134C60.6512 49.4729 61.3767 49.4131 62.0919 49.3254L62.6116 50.6205H62.2543C62.1795 50.6123 62.1037 50.6082 62.0285 50.6082H18.611C18.5344 50.6077 18.4573 50.6123 18.3811 50.6205H18.0278L23.1555 37.7212ZM20.636 54.702H60.0054V72.9073H57.7081V60.3989C57.7059 59.8589 57.4918 59.3417 57.1132 58.9598C56.7341 58.5778 56.2203 58.3622 55.6842 58.3599H48.1734C48.1031 58.3562 48.0328 58.3562 47.9629 58.3599C47.4614 58.4106 46.9961 58.6473 46.6583 59.0242C46.32 59.4011 46.1332 59.8908 46.1337 60.3989V72.9073H20.6358L20.636 54.702ZM25.1078 58.3595C24.6062 58.4102 24.141 58.6469 23.8031 59.0238C23.4649 59.4007 23.278 59.8905 23.2785 60.3985V68.9331C23.2807 69.4731 23.4948 69.9907 23.8734 70.3723C24.2525 70.7542 24.7663 70.9698 25.3024 70.9721H40.7179C41.2539 70.9698 41.7677 70.7542 42.1469 70.3723C42.5255 69.9908 42.7396 69.4732 42.7418 68.9331V60.3985C42.7396 59.8585 42.5255 59.3413 42.1469 58.9594C41.7678 58.5774 41.254 58.3618 40.7179 58.3595H25.3024C25.2375 58.3568 25.1727 58.3568 25.1078 58.3595L25.1078 58.3595ZM27.3416 62.453H38.6779V66.8781L27.3416 66.8786V62.453ZM50.1973 62.453H53.6455V72.9064L50.1973 72.9068V62.453Z" fill="white"/>
</svg>
