<svg width="203" height="69" viewBox="0 0 203 69" fill="none" xmlns="http://www.w3.org/2000/svg">
<g clip-path="url(#clip0_120_113)">
<path d="M76.3065 8.25838C74.6427 7.32691 72.6745 6.86061 70.4016 6.85947C68.1288 6.85833 66.1554 7.33547 64.4814 8.29088C62.8182 9.23366 61.4678 10.6461 60.5982 12.3525C60.1226 13.2762 59.7729 14.2598 59.5584 15.2769C58.7624 15.1059 57.8964 14.8887 57.0185 14.6476V0H49.6886V11.6154C46.382 10.2513 42.8399 9.55396 39.2647 9.56324V0H31.9348V10.3995C24.8997 11.9712 19.9785 15.2444 19.9785 15.2444V53.5743C17.3278 51.7325 13.1429 51.2365 8.92901 52.5687C2.79232 54.5081 -1.08744 59.589 0.27116 63.9191C1.62976 68.2492 7.70849 70.1869 13.8503 68.2475C19.3307 66.5254 23.0127 62.2808 22.7638 58.3166V20.522C22.7638 20.522 26.2941 18.2988 31.9211 17.0828V29.9091H39.2511V16.3252C41.5305 16.3409 43.802 16.5953 46.0287 17.0845C47.3322 17.3719 48.5476 17.6318 49.6749 17.8644V29.9074H57.0049V19.2667C57.8487 19.4104 58.5902 19.5284 59.2379 19.6258C59.3516 21.6381 59.8005 23.4002 60.5846 24.912C61.4626 26.6278 62.8338 28.0398 64.5206 28.9651C66.2252 29.9113 68.2634 30.3845 70.6351 30.3845C72.4386 30.3845 73.9779 30.153 75.253 29.6902C76.4159 29.2946 77.4923 28.6786 78.4236 27.8757C79.2042 27.1938 79.8641 26.3843 80.3754 25.4814C80.8124 24.7142 81.133 23.886 81.3266 23.0239L81.388 22.776H74.7774L74.757 22.8581C74.6086 23.2364 74.3874 23.5816 74.1058 23.8739C73.7348 24.2697 73.2862 24.5842 72.7881 24.7974C72.1541 25.0618 71.4715 25.1888 70.7851 25.1702C69.9613 25.1932 69.1478 24.9808 68.4396 24.558C67.7747 24.1378 67.25 23.528 66.9327 22.8068C66.5913 22.0223 66.4138 21.1761 66.4111 20.3202H81.5329V18.1551C81.5329 15.8749 81.0783 13.8888 80.1692 12.1969C79.29 10.5357 77.9478 9.16722 76.3065 8.25838V8.25838ZM68.3833 12.6843C69.0412 12.2932 69.7915 12.086 70.5562 12.0842C71.3209 12.0824 72.0721 12.286 72.7318 12.674C73.3764 13.0963 73.8799 13.7027 74.1774 14.415C74.392 14.9053 74.5372 15.4234 74.6086 15.9541H66.498C66.5701 15.4287 66.7147 14.9159 66.9276 14.4304C67.229 13.7161 67.7358 13.1082 68.3833 12.6843V12.6843Z" fill="white"/>
<path d="M87.1307 29.3378C88.3638 29.9452 89.724 30.2472 91.0974 30.2185C92.009 30.229 92.9161 30.0886 93.7822 29.8029C94.5726 29.5409 95.3082 29.1351 95.9522 28.6058C96.5887 28.0778 97.1272 27.4409 97.5426 26.7246H97.6875V29.9158H105.017V14.4867C105.044 13.0527 104.606 11.6487 103.768 10.4866C102.934 9.34082 101.763 8.44983 100.256 7.81365C98.7495 7.17747 96.988 6.85937 94.972 6.85938C92.8787 6.85938 91.0781 7.17062 89.57 7.79312C88.062 8.41562 86.8909 9.27926 86.0568 10.384C85.2094 11.5072 84.707 12.8539 84.6113 14.2593L84.5908 14.5363H91.198L91.2389 14.3277C91.3795 13.7213 91.7501 13.1938 92.2719 12.8569C92.8401 12.4567 93.618 12.2561 94.6055 12.2549C95.5931 12.2538 96.3579 12.4927 96.9 12.9715C97.4227 13.4469 97.6841 14.0928 97.6841 14.9091V16.0293L92.5617 16.3525C89.6706 16.5452 87.4364 17.2327 85.8591 18.415C84.2817 19.5972 83.493 21.2504 83.493 23.3744V23.3967C83.4732 24.6356 83.8067 25.8543 84.4544 26.9093C85.1063 27.9509 86.0325 28.7913 87.1307 29.3378V29.3378ZM90.6866 22.9024C90.6765 22.5898 90.7405 22.2793 90.8733 21.9963C91.006 21.7133 91.2038 21.4659 91.4502 21.2744C91.9605 20.8673 92.7247 20.6359 93.743 20.58L97.6892 20.3098V21.825C97.6945 22.4292 97.5102 23.0197 97.1625 23.513C96.8005 24.0269 96.3086 24.4348 95.7374 24.6947C95.0853 24.9889 94.376 25.1338 93.6612 25.1188C92.7662 25.1188 92.0452 24.9307 91.5014 24.5493C91.2372 24.3702 91.0234 24.1259 90.8807 23.8398C90.738 23.5537 90.6711 23.2356 90.6866 22.9161V22.9024Z" fill="white"/>
<path d="M115.97 0H108.637V29.9074H115.97V0Z" fill="white"/>
<path d="M123.397 28.7564C124.686 29.8429 126.686 30.3856 129.399 30.3845C130.169 30.3845 130.838 30.3566 131.404 30.3007C131.97 30.2448 132.451 30.1827 132.849 30.1143V24.8914C132.643 24.9188 132.437 24.9427 132.229 24.965C132.021 24.9872 131.768 24.9958 131.465 24.9958C130.583 24.9958 129.922 24.7917 129.481 24.3835C129.04 23.9754 128.82 23.2879 128.821 22.3211V12.7253H132.849V7.3366H128.821V2.13428H121.466V7.3366H118.409V12.7253H121.466V23.3164C121.466 25.86 122.109 27.6733 123.397 28.7564Z" fill="white"/>
<path d="M149.838 13.9891C150.464 14.7496 150.777 15.8002 150.777 17.141V29.9074H158.107V15.5625C158.107 13.7383 157.8 12.1804 157.186 10.8886C156.619 9.64637 155.69 8.60544 154.522 7.90267C153.358 7.2072 151.957 6.85833 150.318 6.85605C148.624 6.85605 147.203 7.24312 146.057 8.01725C144.91 8.79138 144.047 9.91895 143.468 11.4H143.323V0H135.993V29.9074H143.323V17.1187C143.305 16.3516 143.464 15.5907 143.788 14.8955C144.078 14.2819 144.532 13.7614 145.101 13.3923C145.694 13.0187 146.383 12.8278 147.083 12.8433C148.296 12.8479 149.214 13.2298 149.838 13.9891Z" fill="white"/>
<path d="M39.6924 37.2816C38.1503 37.2816 36.9417 37.6857 36.0667 38.4941C35.1916 39.3024 34.7547 40.605 34.7558 42.4018V45.9932H31.7607V47.3715H34.7558V67.5361H36.3462V47.3715H41.2419V45.9829H36.3258V42.4993C36.3258 41.1175 36.6423 40.133 37.2752 39.5458C37.9082 38.9587 38.7759 38.6651 39.8782 38.6651C40.168 38.6651 40.4442 38.6754 40.705 38.6959C40.9486 38.714 41.1904 38.7524 41.4277 38.8105V37.4423C41.2351 37.4013 40.9845 37.3637 40.6743 37.3295C40.3482 37.2947 40.0204 37.2787 39.6924 37.2816V37.2816Z" fill="white"/>
<path d="M56.3127 46.9765C54.874 46.0793 53.204 45.63 51.3028 45.6289C49.4015 45.6278 47.7315 46.077 46.2928 46.9765C44.8288 47.903 43.6631 49.2346 42.9364 50.8107C42.1409 52.4696 41.7432 54.4385 41.7432 56.7176V56.7587C41.7432 59.0252 42.1409 60.9942 42.9364 62.6656C43.6574 64.2522 44.8238 65.5935 46.2928 66.5254C47.7338 67.425 49.4038 67.881 51.3028 67.8936C53.2017 67.9061 54.8717 67.4569 56.3127 66.5459C57.7824 65.6137 58.9521 64.275 59.681 62.6912C60.4856 61.0198 60.8885 59.044 60.8896 56.7638V56.7228C60.8896 54.4425 60.4868 52.4736 59.681 50.8158C58.9481 49.2387 57.7789 47.9061 56.3127 46.9765V46.9765ZM59.277 56.7587C59.277 58.7493 58.9469 60.4697 58.2867 61.9199C57.6987 63.2828 56.7294 64.4454 55.4962 65.2667C54.2961 66.0489 52.9006 66.4393 51.3096 66.4382C49.7186 66.4371 48.3242 66.0432 47.1264 65.2565C45.9343 64.4835 45.0081 63.3713 44.3478 61.9199C43.6876 60.4686 43.3569 58.7482 43.3557 56.7587V56.7176C43.3557 54.7293 43.6864 53.0157 44.3478 51.5769C44.9383 50.2246 45.9025 49.0703 47.1264 48.2506C48.3185 47.4708 49.7129 47.0808 51.3096 47.0808C52.7836 47.0501 54.2343 47.4532 55.4825 48.2403C56.7158 49.0555 57.6883 50.2105 58.2832 51.5666C58.9492 53.0123 59.2827 54.7293 59.2839 56.7176L59.277 56.7587Z" fill="white"/>
<path d="M71.8591 45.6288C70.4408 45.6288 69.2476 46.0278 68.2793 46.8259C67.3111 47.624 66.6224 48.7327 66.2133 50.1522H66.152V45.9811H64.5615V67.5292H66.152V54.1266C66.1314 52.8814 66.3592 51.6447 66.8219 50.4891C67.2082 49.5021 67.8676 48.6465 68.7226 48.023C69.5829 47.4253 70.6101 47.1169 71.6562 47.1423C72.1004 47.1351 72.5438 47.1804 72.9773 47.2774C73.2834 47.3443 73.5812 47.4446 73.8655 47.5767V45.9811C73.5984 45.8764 73.3222 45.7968 73.0404 45.7434C72.6516 45.6645 72.2557 45.6261 71.8591 45.6288V45.6288Z" fill="white"/>
<path d="M115.346 45.4527C114.244 44.812 112.955 44.491 111.482 44.4899C110.423 44.4788 109.373 44.683 108.394 45.0901C107.479 45.4716 106.655 46.0441 105.977 46.7695C105.306 47.4941 104.813 48.367 104.54 49.3177H104.397C104.225 48.3636 103.828 47.4647 103.24 46.696C102.679 45.9881 101.956 45.4266 101.133 45.0594C100.227 44.6664 99.2473 44.4722 98.2604 44.4899C96.7182 44.4899 95.3824 44.9009 94.2528 45.7229C93.1288 46.5372 92.3014 47.6983 91.897 49.0286H91.7538V44.9653H84.4238V67.5395H91.7538V54.1882C91.7377 53.5166 91.8753 52.8502 92.1561 52.2403C92.4054 51.7096 92.7997 51.2607 93.2931 50.9457C93.8105 50.6264 94.4091 50.4642 95.0164 50.4789C96.0222 50.4789 96.7938 50.7793 97.3313 51.3801C97.8689 51.981 98.1371 52.8549 98.1359 54.0018V67.536H105.14V54.1472C105.121 53.4764 105.255 52.8101 105.532 52.1993C105.779 51.6778 106.17 51.2389 106.659 50.9355C107.173 50.624 107.764 50.4656 108.364 50.4789C109.41 50.4789 110.199 50.7827 110.73 51.3904C111.261 51.9981 111.526 52.8896 111.526 54.0651V67.536H118.856V52.1788C118.856 50.6442 118.546 49.3006 117.927 48.1479C117.336 47.0243 116.441 46.0902 115.346 45.4527Z" fill="white"/>
<path d="M136.934 57.7745C136.948 58.5361 136.789 59.2911 136.47 59.9823C136.185 60.5955 135.734 61.1158 135.168 61.4838C134.563 61.8569 133.862 62.0442 133.153 62.0225C131.955 62.0225 131.053 61.66 130.447 60.9348C129.842 60.2097 129.539 59.2047 129.539 57.9198V44.9653H122.209V59.5017C122.209 61.2837 122.512 62.8103 123.118 64.0815C123.68 65.3048 124.604 66.325 125.763 67.0042C126.919 67.6814 128.317 68.0201 129.957 68.0201C131.661 68.0201 133.087 67.633 134.233 66.8589C135.403 66.0498 136.296 64.8992 136.79 63.5634H136.935V67.5429H144.265V44.9688H136.935L136.934 57.7745Z" fill="white"/>
<path d="M166.466 56.3551C165.384 55.3666 163.638 54.6375 161.228 54.1678L157.283 53.3811C156.208 53.1748 155.47 52.912 155.067 52.5928C154.88 52.4552 154.728 52.2749 154.624 52.0667C154.519 51.8586 154.466 51.6286 154.467 51.3956V51.3751C154.459 50.9999 154.588 50.6346 154.831 50.349C155.108 50.0426 155.461 49.8144 155.853 49.6872C156.352 49.5187 156.876 49.4377 157.403 49.4478C158.426 49.4478 159.218 49.6861 159.779 50.1626C160.043 50.37 160.263 50.6281 160.426 50.9217C160.589 51.2154 160.692 51.5387 160.729 51.8728L160.751 52.0438H167.447V51.8728C167.442 50.5476 167.031 49.2558 166.269 48.1737C165.498 47.0621 164.373 46.1705 162.892 45.499C161.411 44.8275 159.582 44.4928 157.406 44.4951C155.37 44.4951 153.597 44.7921 152.088 45.3861C150.579 45.9801 149.422 46.8192 148.617 47.9035C147.81 48.99 147.407 50.2857 147.409 51.7907V51.8112C147.409 53.5214 147.973 54.9408 149.101 56.0695C150.23 57.1982 151.896 57.9809 154.099 58.4176L158.066 59.1837C159.072 59.3901 159.777 59.6495 160.183 59.9619C160.376 60.0987 160.532 60.2808 160.638 60.4921C160.745 60.7034 160.798 60.9377 160.793 61.1744V61.1949C160.797 61.5579 160.664 61.9089 160.422 62.1782C160.129 62.4891 159.758 62.7149 159.348 62.8315C158.805 62.9941 158.24 63.0708 157.674 63.059C156.614 63.059 155.783 62.8452 155.183 62.4177C154.586 61.9908 154.17 61.355 154.017 60.6357L153.977 60.4646H146.872L146.892 60.6511C147.034 62.0546 147.565 63.3902 148.426 64.5058C149.279 65.6105 150.476 66.4707 152.02 67.0864C153.563 67.7021 155.449 68.011 157.679 68.0133C159.745 68.0133 161.556 67.7026 163.112 67.0813C164.667 66.4599 165.886 65.5752 166.768 64.4271C167.654 63.2698 168.12 61.8446 168.091 60.386V60.3689C168.089 58.6804 167.547 57.3425 166.466 56.3551Z" fill="white"/>
<path d="M174.384 35.2876C173.893 35.2769 173.405 35.3659 172.949 35.5493C172.493 35.7326 172.078 36.0066 171.73 36.3547C171.388 36.6854 171.115 37.082 170.929 37.5209C170.742 37.9598 170.646 38.4319 170.646 38.9089C170.646 39.3859 170.742 39.858 170.929 40.2968C171.115 40.7357 171.388 41.1324 171.73 41.463C172.445 42.154 173.398 42.5402 174.39 42.5402C175.383 42.5402 176.336 42.154 177.05 41.463C177.39 41.1308 177.661 40.7336 177.845 40.2949C178.03 39.8563 178.125 39.385 178.125 38.9089C178.125 38.4327 178.03 37.9615 177.845 37.5228C177.661 37.0841 177.39 36.687 177.05 36.3547C176.701 36.0048 176.285 35.7298 175.827 35.5463C175.368 35.3629 174.878 35.2748 174.384 35.2876V35.2876Z" fill="white"/>
<path d="M178.065 44.9653H170.731V67.5361H178.065V44.9653Z" fill="white"/>
<path d="M196.267 58.6861L196.224 58.893C196.087 59.9727 195.698 60.8329 195.058 61.4736C194.418 62.1144 193.561 62.4359 192.486 62.4382C191.693 62.4585 190.916 62.2063 190.285 61.7233C189.672 61.2456 189.203 60.5444 188.881 59.6198C188.533 58.5353 188.368 57.4 188.395 56.261V56.2405C188.395 54.9294 188.557 53.8138 188.881 52.8937C189.205 51.9737 189.673 51.2725 190.285 50.7902C190.907 50.3028 191.677 50.0466 192.466 50.0651C193.539 50.0651 194.4 50.3963 195.048 51.0587C195.71 51.7553 196.123 52.6518 196.224 53.6086L196.245 53.8155H202.98V53.6701C202.983 51.988 202.506 50.34 201.605 48.921C200.705 47.5019 199.419 46.3709 197.898 45.6615C196.315 44.8816 194.463 44.4917 192.341 44.4917C190.013 44.4917 187.998 44.9614 186.298 45.9009C184.613 46.8237 183.239 48.2286 182.352 49.9369C181.423 51.6915 180.959 53.7779 180.958 56.1961V56.2166C180.958 58.6621 181.419 60.7656 182.342 62.5271C183.225 64.2488 184.603 65.6645 186.298 66.5904C188.013 67.5367 190.048 68.0099 192.402 68.0099C194.562 68.0099 196.425 67.6057 197.992 66.7974C199.484 66.0662 200.743 64.93 201.624 63.5178C202.506 62.1056 202.976 60.4738 202.98 58.8075L203 58.6826L196.267 58.6861Z" fill="white"/>
</g>
<defs>
<clipPath id="clip0_120_113">
<rect width="203" height="69" fill="white"/>
</clipPath>
</defs>
</svg>
